<?xml version="1.0" encoding="iso-8859-1"?><!DOCTYPE svg PUBLIC "-//W3C//DTD SVG 1.1//EN" "http://www.w3.org/Graphics/SVG/1.1/DTD/svg11.dtd"><svg xmlns="http://www.w3.org/2000/svg" xmlns:xlink="http://www.w3.org/1999/xlink"><symbol viewBox="0 0 58.153 58.153" id="alarm-clock" xmlns="http://www.w3.org/2000/svg"><path d="M40.076 29.153h-7.142a3.995 3.995 0 00-2.858-2.858V16.153a1 1 0 10-2 0v10.142c-1.72.447-3 1.999-3 3.858 0 2.206 1.794 4 4 4 1.858 0 3.411-1.28 3.858-3h7.142a1 1 0 100-2zm-11 3c-1.103 0-2-.897-2-2s.897-2 2-2 2 .897 2 2-.897 2-2 2z"/><path d="M50.188 9.764l4.096 4.096a1 1 0 001.414 0c3.167-3.166 3.167-8.319 0-11.485-3.166-3.166-8.319-3.166-11.485 0a.997.997 0 000 1.414l4.561 4.561-1.699 1.699c-4.78-4.284-11.089-6.896-17.998-6.896s-13.218 2.612-17.998 6.896l-1.7-1.699 4.561-4.561a.997.997 0 000-1.414c-3.166-3.166-8.319-3.166-11.485 0-3.167 3.166-3.167 8.319 0 11.485a1 1 0 001.414 0l4.096-4.096 1.676 1.676c-4.679 4.857-7.565 11.453-7.565 18.713 0 9.898 5.357 18.564 13.321 23.265l-3.028 3.028a.999.999 0 101.414 1.414l3.45-3.45c3.578 1.754 7.597 2.743 11.843 2.743s8.265-.989 11.843-2.743l3.45 3.45a.997.997 0 001.414 0 .999.999 0 000-1.414l-3.028-3.028c7.964-4.701 13.321-13.367 13.321-23.265 0-7.26-2.886-13.856-7.565-18.713l1.677-1.676zm4.095-5.975c2.146 2.146 2.362 5.502.649 7.893L46.391 3.14c2.389-1.713 5.746-1.498 7.892.649zM3.22 11.681a6.131 6.131 0 01.649-7.892c2.146-2.146 5.503-2.361 7.892-.649L3.22 11.681zm25.856 43.472c-13.785 0-25-11.215-25-25s11.215-25 25-25 25 11.215 25 25-11.214 25-25 25z"/><path d="M48.958 18.61a23.164 23.164 0 00-8.338-8.338c-.016-.011-.026-.028-.043-.038-.018-.01-.037-.01-.055-.019a22.85 22.85 0 00-11.445-3.063 22.84 22.84 0 00-11.445 3.063c-.018.009-.038.008-.055.019-.017.01-.026.027-.043.038a23.156 23.156 0 00-8.338 8.338c-.011.017-.028.026-.038.043-.01.017-.01.037-.018.055-1.944 3.374-3.063 7.28-3.063 11.445s1.119 8.072 3.063 11.445c.009.018.008.037.018.055.014.025.035.043.051.066a23.175 23.175 0 008.325 8.315c.016.011.026.028.043.038.026.015.054.021.08.033 3.368 1.935 7.265 3.048 11.42 3.048s8.052-1.113 11.42-3.048c.026-.012.054-.018.08-.033.017-.01.026-.027.043-.038a23.167 23.167 0 008.325-8.315c.016-.023.037-.041.051-.066.01-.017.01-.037.018-.055 1.944-3.374 3.063-7.28 3.063-11.445s-1.119-8.072-3.063-11.445c-.009-.018-.008-.037-.018-.055-.011-.017-.028-.027-.038-.043zm-8.539 29.189l-.477-.826a1 1 0 10-1.732 1l.479.829a20.84 20.84 0 01-8.612 2.3v-.949a1 1 0 10-2 0v.949a20.825 20.825 0 01-8.612-2.3l.479-.829a1 1 0 00-1.732-1l-.477.826a21.128 21.128 0 01-6.303-6.303l.826-.477a1 1 0 00-1-1.732l-.829.479a20.844 20.844 0 01-2.3-8.612h.949a1 1 0 100-2h-.951c.147-3.092.953-6.01 2.3-8.612l.829.479a.997.997 0 001.366-.366 1 1 0 00-.366-1.366l-.826-.479a21.14 21.14 0 016.303-6.303l.477.826a1.002 1.002 0 001.366.366 1 1 0 00.366-1.366l-.479-.829a20.84 20.84 0 018.612-2.3v.949a1 1 0 102 0v-.949c3.092.146 6.009.953 8.612 2.3l-.479.829a1 1 0 001.732 1l.477-.826a21.128 21.128 0 016.303 6.303l-.826.477a1 1 0 001 1.732l.829-.479a20.844 20.844 0 012.3 8.612h-.949a1 1 0 100 2h.949a20.836 20.836 0 01-2.3 8.612l-.829-.479a.999.999 0 10-1 1.732l.826.477a21.093 21.093 0 01-6.301 6.305z"/></symbol><symbol viewBox="0 0 480 480.003" id="buildings" xmlns="http://www.w3.org/2000/svg"><path d="M232 17.492l171.707 109.262 8.59-13.504-176-112a7.998 7.998 0 00-8.59 0l-176 112 8.59 13.504zm0 0M112 352.004h64c4.422 0 8-3.582 8-8v-64c0-4.418-3.578-8-8-8h-64a8 8 0 00-8 8v64a8 8 0 008 8zm8-32h16v16h-16zm32 16v-16h16v16zm16-32h-16v-16h16zm-32-16v16h-16v-16zm0 0M112 240.004h64c4.422 0 8-3.582 8-8v-64c0-4.418-3.578-8-8-8h-64a8 8 0 00-8 8v64a8 8 0 008 8zm8-32h16v16h-16zm32 16v-16h16v16zm16-32h-16v-16h16zm-32-16v16h-16v-16zm0 0M288 352.004h64c4.422 0 8-3.582 8-8v-64c0-4.418-3.578-8-8-8h-64a8 8 0 00-8 8v64a8 8 0 008 8zm8-32h16v16h-16zm32 16v-16h16v16zm16-32h-16v-16h16zm-32-16v16h-16v-16zm0 0M288 240.004h64c4.422 0 8-3.582 8-8v-64c0-4.418-3.578-8-8-8h-64a8 8 0 00-8 8v64a8 8 0 008 8zm8-32h16v16h-16zm32 16v-16h16v16zm16-32h-16v-16h16zm-32-16v16h-16v-16zm0 0"/><path d="M472 312.004h-48a8 8 0 00-8 8v40h-8v16h32v88h-48V159.309l11.707 7.445 8.59-13.504-176-112a7.998 7.998 0 00-8.59 0l-176 112 8.59 13.504L72 159.309V356.69l-2.344-2.343c-3.12-3.125-8.187-3.125-11.312 0L48 364.69l-10.344-10.343c-3.12-3.125-8.187-3.125-11.312 0l-16 16A8.017 8.017 0 008 376.004v88H0v16h464v-16h-8v-88h16c4.422 0 8-3.582 8-8v-48c0-4.418-3.578-8-8-8zM232 57.492l144 91.633v282.879h-80v-16c0-4.418-3.578-8-8-8h-8v-16c0-4.418-3.578-8-8-8v-104c0-4.418-3.578-8-8-8h-64a8 8 0 00-8 8v104a8 8 0 00-8 8v16h-8a8 8 0 00-8 8v16H88V149.125zm24 326.512h-48v-96h48zm-56 16h64v8h-64zm80 24v8h-96v-8zM64 371.316l8 8v84.688H56v-84.688zm-40 8l8-8 8 8v84.688H24zm64 84.688v-16h288v16zm376-104h-32v-32h32zm0 0"/></symbol><symbol viewBox="0 0 512 512" id="calendar" xmlns="http://www.w3.org/2000/svg"><path d="M452 40h-24V0h-40v40H124V0H84v40H60C26.916 40 0 66.916 0 100v352c0 33.084 26.916 60 60 60h392c33.084 0 60-26.916 60-60V100c0-33.084-26.916-60-60-60zm20 412c0 11.028-8.972 20-20 20H60c-11.028 0-20-8.972-20-20V188h432v264zm0-304H40v-48c0-11.028 8.972-20 20-20h24v40h40V80h264v40h40V80h24c11.028 0 20 8.972 20 20v48z"/><path d="M76 230h40v40H76zM156 230h40v40h-40zM236 230h40v40h-40zM316 230h40v40h-40zM396 230h40v40h-40zM76 310h40v40H76zM156 310h40v40h-40zM236 310h40v40h-40zM316 310h40v40h-40zM76 390h40v40H76zM156 390h40v40h-40zM236 390h40v40h-40zM316 390h40v40h-40zM396 310h40v40h-40z"/></symbol><symbol viewBox="0 0 60 60" id="chat" xmlns="http://www.w3.org/2000/svg"><path d="M10 25.465h13a1 1 0 100-2H10a1 1 0 100 2zM36 29.465H10a1 1 0 100 2h26a1 1 0 100-2zM36 35.465H10a1 1 0 100 2h26a1 1 0 100-2z"/><path d="M54.072 2.535l-34.142-.07c-3.27 0-5.93 2.66-5.93 5.93v5.124l-8.07.017c-3.27 0-5.93 2.66-5.93 5.93v21.141c0 3.27 2.66 5.929 5.93 5.929H12v10a1 1 0 001.74.673l9.704-10.675 16.626-.068c3.27 0 5.93-2.66 5.93-5.929v-.113l5.26 5.786a1.002 1.002 0 001.74-.673v-10h1.07c3.27 0 5.93-2.66 5.93-5.929V8.465a5.937 5.937 0 00-5.928-5.93zM44 40.536a3.934 3.934 0 01-3.934 3.929l-17.07.07a1 1 0 00-.736.327L14 53.949v-8.414a1 1 0 00-1-1H5.93A3.934 3.934 0 012 40.606V19.465a3.935 3.935 0 013.932-3.93L15 15.516h.002l25.068-.052a3.934 3.934 0 013.93 3.93v21.142zm14-10.93a3.934 3.934 0 01-3.93 3.929H52a1 1 0 00-1 1v8.414l-5-5.5V19.395c0-3.27-2.66-5.93-5.932-5.93L16 13.514v-5.12a3.934 3.934 0 013.928-3.93l34.141.07h.002a3.934 3.934 0 013.93 3.93v21.142z"/></symbol><symbol viewBox="0 0 443.294 443.294" id="clock" xmlns="http://www.w3.org/2000/svg"><path d="M221.647 0C99.433 0 0 99.433 0 221.647s99.433 221.647 221.647 221.647 221.647-99.433 221.647-221.647S343.861 0 221.647 0zm0 415.588c-106.941 0-193.941-87-193.941-193.941s87-193.941 193.941-193.941 193.941 87 193.941 193.941-87 193.941-193.941 193.941z"/><path d="M235.5 83.118h-27.706v144.265l87.176 87.176 19.589-19.589-79.059-79.059z"/></symbol><symbol viewBox="0 0 490.656 490.656" id="down-arrow" xmlns="http://www.w3.org/2000/svg"><path d="M487.536 120.445c-4.16-4.16-10.923-4.16-15.083 0L245.339 347.581 18.203 120.467c-4.16-4.16-10.923-4.16-15.083 0s-4.16 10.923 0 15.083l234.667 234.667c2.091 2.069 4.821 3.115 7.552 3.115s5.461-1.045 7.531-3.136l234.667-234.667c4.159-4.161 4.159-10.924-.001-15.084z"/></symbol><symbol viewBox="0 0 271.673 271.673" id="grid" xmlns="http://www.w3.org/2000/svg"><path d="M114.939 0H10.449C4.678 0 0 4.678 0 10.449v104.49c0 5.771 4.678 10.449 10.449 10.449h104.49c5.771 0 10.449-4.678 10.449-10.449V10.449C125.388 4.678 120.71 0 114.939 0zM261.224 0h-104.49c-5.771 0-10.449 4.678-10.449 10.449v104.49c0 5.771 4.678 10.449 10.449 10.449h104.49c5.771 0 10.449-4.678 10.449-10.449V10.449C271.673 4.678 266.995 0 261.224 0zM114.939 146.286H10.449C4.678 146.286 0 150.964 0 156.735v104.49c0 5.771 4.678 10.449 10.449 10.449h104.49c5.771 0 10.449-4.678 10.449-10.449v-104.49c0-5.771-4.678-10.449-10.449-10.449zM261.224 146.286h-104.49c-5.771 0-10.449 4.678-10.449 10.449v104.49c0 5.771 4.678 10.449 10.449 10.449h104.49c5.771 0 10.449-4.678 10.449-10.449v-104.49c0-5.771-4.678-10.449-10.449-10.449z"/></symbol><symbol viewBox="0 0 512 512" id="home" xmlns="http://www.w3.org/2000/svg"><path d="M506.555 208.064L263.859 30.367a13.3 13.3 0 00-15.716 0L5.445 208.064c-5.928 4.341-7.216 12.665-2.875 18.593s12.666 7.214 18.593 2.875L256 57.588l234.837 171.943a13.236 13.236 0 007.848 2.57c4.096 0 8.138-1.885 10.744-5.445 4.342-5.927 3.054-14.251-2.874-18.592z"/><path d="M442.246 232.543c-7.346 0-13.303 5.956-13.303 13.303v211.749H322.521V342.009c0-36.68-29.842-66.52-66.52-66.52s-66.52 29.842-66.52 66.52v115.587H83.058V245.847c0-7.347-5.957-13.303-13.303-13.303s-13.303 5.956-13.303 13.303V470.9c0 7.347 5.957 13.303 13.303 13.303h133.029c6.996 0 12.721-5.405 13.251-12.267.032-.311.052-.651.052-1.036V342.01c0-22.009 17.905-39.914 39.914-39.914s39.914 17.906 39.914 39.914V470.9c0 .383.02.717.052 1.024.524 6.867 6.251 12.279 13.251 12.279h133.029c7.347 0 13.303-5.956 13.303-13.303V245.847c-.001-7.348-5.957-13.304-13.304-13.304z"/></symbol><symbol viewBox="0 0 512 512" id="instagram" xmlns="http://www.w3.org/2000/svg"><path d="M376 91H136c-24.813 0-45 20.188-45 45v240c0 24.813 20.188 45 45 45h240c24.813 0 45-20.188 45-45V136c0-24.813-20.188-45-45-45zM256 361c-57.89 0-105-47.11-105-105s47.11-105 105-105 105 47.11 105 105-47.11 105-105 105zm105-180c-16.54 0-30-13.46-30-30s13.46-30 30-30 30 13.46 30 30-13.46 30-30 30zm0 0"/><path d="M256 181c-41.352 0-75 33.648-75 75s33.648 75 75 75 75-33.648 75-75-33.648-75-75-75zm0 0"/><path d="M436 0H76C34.648 0 0 34.648 0 76v360c0 41.352 34.648 76 76 76h360c41.352 0 76-34.648 76-76V76c0-41.352-34.648-76-76-76zm15 376c0 41.352-33.648 75-75 75H136c-41.352 0-75-33.648-75-75V136c0-41.352 33.648-75 75-75h240c41.352 0 75 33.648 75 75zm0 0"/></symbol><symbol viewBox="0 0 428.948 428.948" id="kilom" xmlns="http://www.w3.org/2000/svg"><path d="M221.988 280.48c9.664 0 17.516-7.889 17.516-17.563 0-9.653-7.852-17.487-17.516-17.487l-79.361-58.371 61.844 76.985c.574 9.164 8.209 16.436 17.517 16.436zM127.008 332.197h174.933v41.513H127.008z"/><path d="M366.13 118.057c-40.51-40.509-94.369-62.818-151.656-62.818-57.288 0-111.148 22.309-151.657 62.818S0 212.425 0 269.713c0 36.99 9.319 72.539 26.816 103.997h40.086l29.319-16.929-12.948-22.428-37.7 21.768c-13.319-25.932-20.843-55.307-20.843-86.408 0-5.504.25-10.951.711-16.338l44.952 7.926 4.497-25.504-45.481-8.019c8.127-35.883 26.451-67.937 51.755-92.948l30.815 36.725 19.839-16.646-31.049-37.002c28.471-21.379 63.128-34.938 100.757-37.485v49.117h25.896V80.422c37.629 2.549 72.286 16.107 100.758 37.486l-31.05 37.001 19.838 16.646 30.816-36.726c25.303 25.012 43.627 57.066 51.754 92.948l-45.48 8.021 4.498 25.502 44.949-7.927c.461 5.388.711 10.834.711 16.338 0 31.103-7.521 60.479-20.842 86.409l-37.701-21.766-12.947 22.427 29.318 16.927h40.088c17.498-31.458 26.816-67.007 26.816-103.997.001-57.287-22.31-111.147-62.818-151.654z"/></symbol><symbol viewBox="0 0 511.626 511.627" id="list" xmlns="http://www.w3.org/2000/svg"><path d="M118.771 200.999H27.406c-7.611 0-14.084 2.664-19.414 7.994C2.663 214.32 0 220.791 0 228.407v54.823c0 7.61 2.663 14.078 7.992 19.406 5.33 5.329 11.803 7.994 19.414 7.994h91.365c7.611 0 14.084-2.665 19.414-7.994 5.33-5.328 7.992-11.796 7.992-19.406v-54.823c0-7.616-2.662-14.087-7.992-19.414s-11.803-7.994-19.414-7.994zM118.771 54.814H27.406c-7.611 0-14.084 2.663-19.414 7.993C2.663 68.137 0 74.61 0 82.221v54.821c0 7.616 2.663 14.091 7.992 19.417 5.33 5.327 11.803 7.994 19.414 7.994h91.365c7.611 0 14.084-2.667 19.414-7.994s7.992-11.798 7.992-19.414v-54.82c0-7.611-2.662-14.084-7.992-19.417-5.33-5.328-11.803-7.994-19.414-7.994zM118.771 347.177H27.406c-7.611 0-14.084 2.662-19.414 7.994C2.663 360.502 0 366.974 0 374.585v54.826c0 7.61 2.663 14.086 7.992 19.41 5.33 5.332 11.803 7.991 19.414 7.991h91.365c7.611 0 14.084-2.663 19.414-7.991 5.33-5.324 7.992-11.8 7.992-19.41v-54.826c0-7.611-2.662-14.083-7.992-19.411s-11.803-7.997-19.414-7.997zM484.215 200.999H210.131c-7.614 0-14.084 2.664-19.414 7.994s-7.992 11.798-7.992 19.414v54.823c0 7.61 2.662 14.078 7.992 19.406 5.327 5.329 11.8 7.994 19.414 7.994h274.091c7.61 0 14.085-2.665 19.41-7.994 5.332-5.328 7.994-11.796 7.994-19.406v-54.823c0-7.616-2.662-14.087-7.997-19.414-5.329-5.33-11.796-7.994-19.414-7.994zM484.215 347.177H210.131c-7.614 0-14.084 2.662-19.414 7.994-5.33 5.331-7.992 11.8-7.992 19.41v54.823c0 7.611 2.662 14.089 7.992 19.417 5.327 5.328 11.8 7.987 19.414 7.987h274.091c7.61 0 14.085-2.662 19.41-7.987 5.332-5.331 7.994-11.806 7.994-19.417v-54.823c0-7.61-2.662-14.085-7.997-19.41-5.329-5.325-11.796-7.994-19.414-7.994zM503.629 62.811c-5.329-5.327-11.797-7.993-19.414-7.993H210.131c-7.614 0-14.084 2.663-19.414 7.993s-7.992 11.803-7.992 19.414v54.821c0 7.616 2.662 14.083 7.992 19.414 5.327 5.327 11.8 7.994 19.414 7.994h274.091c7.61 0 14.078-2.667 19.41-7.994s7.994-11.798 7.994-19.414V82.225c0-7.612-2.662-14.084-7.997-19.414z"/></symbol><symbol viewBox="-17 0 511 512" id="liter" xmlns="http://www.w3.org/2000/svg"><path d="M201.836 371.234c-8.285 0-15 6.715-15 15s6.715 15 15 15h106.316v15.004c0 8.282 6.715 15 15 15 8.282 0 15-6.718 15-15V173.516c0-8.282-6.718-15-15-15-8.285 0-15 6.718-15 15v15.004H201.836c-8.285 0-15 6.714-15 15 0 8.285 6.715 15 15 15h106.316v30.906h-45.656c-8.285 0-15 6.715-15 15 0 8.281 6.715 15 15 15h45.656v30.902h-45.656c-8.285 0-15 6.719-15 15 0 8.285 6.715 15 15 15h45.656v30.906zm0 0"/><path d="M423.598 0c-24.614 0-45.45 16.473-52.157 39H15.5a14.993 14.993 0 00-13.77 9.055 14.997 14.997 0 002.856 16.234l77.266 81.953v289.856c0 41.851 33.937 75.902 75.656 75.902h166c41.719 0 75.656-34.05 75.656-75.902V54.59c0-13.559 10.961-24.59 24.434-24.59s24.43 11.031 24.43 24.59v200.133c0 8.285 6.718 15 15 15 8.285 0 15-6.715 15-15V54.59c0-30.102-24.419-54.59-54.43-54.59zm-54.43 436.098c0 25.312-20.48 45.902-45.66 45.902h-166c-25.176 0-45.656-20.59-45.656-45.902V140.289a15.01 15.01 0 00-4.086-10.293L50.258 69h318.91zm0 0"/></symbol><symbol viewBox="0 -53 384 384" id="menu" xmlns="http://www.w3.org/2000/svg"><path d="M368 154.668H16c-8.832 0-16-7.168-16-16s7.168-16 16-16h352c8.832 0 16 7.168 16 16s-7.168 16-16 16zm0 0M368 32H16C7.168 32 0 24.832 0 16S7.168 0 16 0h352c8.832 0 16 7.168 16 16s-7.168 16-16 16zm0 0M368 277.332H16c-8.832 0-16-7.168-16-16s7.168-16 16-16h352c8.832 0 16 7.168 16 16s-7.168 16-16 16zm0 0"/></symbol><symbol viewBox="0 0 463.009 463.009" id="phone-call" xmlns="http://www.w3.org/2000/svg"><path d="M462.692 381.085c-1.472-11.126-7.895-20.719-17.62-26.318L330.846 289c-13.99-8.055-31.738-5.71-43.157 5.708l-22.499 22.499c-5.987 5.988-15.459 6.518-22.028 1.231-17.737-14.272-35.201-29.979-51.906-46.685-16.705-16.705-32.412-34.168-46.685-51.906-5.287-6.57-4.758-16.041 1.231-22.029l22.498-22.499c11.418-11.417 13.766-29.163 5.709-43.156L108.242 17.937C102.642 8.211 93.05 1.789 81.924.317c-11.127-1.475-22.06 2.236-29.996 10.172L18.027 44.391c-23.661 23.662-24.041 66.944-1.07 121.875 22.088 52.818 63.308 110.962 116.065 163.721 52.759 52.758 110.903 93.978 163.722 116.066 27.039 11.307 51.253 16.957 71.697 16.956 21.088 0 38.163-6.013 50.178-18.027l33.901-33.902c7.935-7.936 11.643-18.869 10.172-29.995zm-139.33-79.086l114.226 65.767c5.649 3.252 9.379 8.824 10.233 15.286.718 5.423-.691 10.763-3.885 15.066L292.131 311.48l6.165-6.165c6.631-6.631 16.941-7.994 25.066-3.316zM79.956 15.188c6.463.855 12.034 4.585 15.286 10.234l65.767 114.226c4.68 8.127 3.316 18.435-3.315 25.065l-5.663 5.663L64.917 19.073c3.561-2.637 7.82-4.069 12.26-4.069.921 0 1.85.061 2.779.184zm328.055 419.187c-18.798 18.798-57.244 18.01-105.48-2.162-51.06-21.352-107.491-61.424-158.901-112.833-51.41-51.41-91.482-107.842-112.834-158.901-20.173-48.237-20.96-86.683-2.162-105.482l25.167-25.168 87.245 151.532-5.851 5.851c-11.415 11.416-12.409 29.488-2.311 42.04 14.609 18.156 30.68 36.024 47.764 53.108 17.086 17.085 34.954 33.156 53.109 47.765 12.55 10.098 30.622 9.105 42.04-2.312l5.338-5.338 152.016 86.759-25.14 25.141z"/></symbol><symbol viewBox="0 0 512 512" id="placeholder" xmlns="http://www.w3.org/2000/svg"><path d="M256 0C156.748 0 76 80.748 76 180c0 33.534 9.289 66.26 26.869 94.652l142.885 230.257A15 15 0 00258.499 512h.119a14.997 14.997 0 0012.75-7.292L410.611 272.22C427.221 244.428 436 212.539 436 180 436 80.748 355.252 0 256 0zm128.866 256.818L258.272 468.186l-129.905-209.34C113.734 235.214 105.8 207.95 105.8 180c0-82.71 67.49-150.2 150.2-150.2S406.1 97.29 406.1 180c0 27.121-7.411 53.688-21.234 76.818z"/><path d="M256 90c-49.626 0-90 40.374-90 90 0 49.309 39.717 90 90 90 50.903 0 90-41.233 90-90 0-49.626-40.374-90-90-90zm0 150.2c-33.257 0-60.2-27.033-60.2-60.2 0-33.084 27.116-60.2 60.2-60.2s60.1 27.116 60.1 60.2c0 32.683-26.316 60.2-60.1 60.2z"/></symbol><symbol viewBox="0 0 512 512" id="question" xmlns="http://www.w3.org/2000/svg"><path d="M437.02 74.98C388.667 26.629 324.38 0 256 0S123.333 26.629 74.98 74.98C26.629 123.333 0 187.62 0 256c0 45.105 11.836 89.231 34.286 128.041L0 512l127.959-34.286C166.769 500.164 210.895 512 256 512c68.38 0 132.667-26.629 181.02-74.98C485.371 388.667 512 324.38 512 256s-26.629-132.667-74.98-181.02zM256 482c-41.755 0-82.547-11.48-117.965-33.201l-5.496-3.37-90.113 24.146 24.146-90.113-3.37-5.496C41.48 338.547 30 297.755 30 256 30 131.383 131.383 30 256 30s226 101.383 226 226-101.383 226-226 226z"/><path d="M241 353.5h30v30h-30zM256 128.5c-41.355 0-75 33.645-75 75h30c0-24.813 20.187-45 45-45s45 20.187 45 45a44.909 44.909 0 01-11.467 29.995L241 287.771V323.5h30v-24.271l40.892-45.73A74.876 74.876 0 00331 203.5c0-41.355-33.645-75-75-75z"/></symbol><symbol viewBox="0 0 491.236 491.236" id="refresh" xmlns="http://www.w3.org/2000/svg"><path d="M55.89 262.818c-3-26-.5-51.1 6.3-74.3 22.6-77.1 93.5-133.8 177.6-134.8v-50.4c0-2.8 3.5-4.3 5.8-2.6l103.7 76.2c1.7 1.3 1.7 3.9 0 5.1l-103.6 76.2c-2.4 1.7-5.8.2-5.8-2.6v-50.3c-55.3.9-102.5 35-122.8 83.2-7.7 18.2-11.6 38.3-10.5 59.4 1.5 29 12.4 55.7 29.6 77.3 9.2 11.5 7 28.3-4.9 37-11.3 8.3-27.1 6-35.8-5-21.3-26.6-35.5-59-39.6-94.4zm299.4-96.8c17.3 21.5 28.2 48.3 29.6 77.3 1.1 21.2-2.9 41.3-10.5 59.4-20.3 48.2-67.5 82.4-122.8 83.2v-50.3c0-2.8-3.5-4.3-5.8-2.6l-103.7 76.2c-1.7 1.3-1.7 3.9 0 5.1l103.6 76.2c2.4 1.7 5.8.2 5.8-2.6v-50.4c84.1-.9 155.1-57.6 177.6-134.8 6.8-23.2 9.2-48.3 6.3-74.3-4-35.4-18.2-67.8-39.5-94.4-8.8-11-24.5-13.3-35.8-5-11.8 8.7-14 25.5-4.8 37z"/></symbol><symbol viewBox="0 0 512 512" id="settings" xmlns="http://www.w3.org/2000/svg"><path d="M272.066 512h-32.133c-25.989 0-47.134-21.144-47.134-47.133v-10.871a206.698 206.698 0 01-32.097-13.323l-7.704 7.704c-18.659 18.682-48.548 18.134-66.665-.007l-22.711-22.71c-18.149-18.129-18.671-48.008.006-66.665l7.698-7.698A206.714 206.714 0 0158.003 319.2h-10.87C21.145 319.2 0 298.056 0 272.067v-32.134C0 213.944 21.145 192.8 47.134 192.8h10.87a206.755 206.755 0 0113.323-32.097L63.623 153c-18.666-18.646-18.151-48.528.006-66.665l22.713-22.712c18.159-18.184 48.041-18.638 66.664.006l7.697 7.697A206.893 206.893 0 01192.8 58.003v-10.87C192.8 21.144 213.944 0 239.934 0h32.133C298.056 0 319.2 21.144 319.2 47.133v10.871a206.698 206.698 0 0132.097 13.323l7.704-7.704c18.659-18.682 48.548-18.134 66.665.007l22.711 22.71c18.149 18.129 18.671 48.008-.006 66.665l-7.698 7.698a206.714 206.714 0 0113.323 32.097h10.87c25.989 0 47.134 21.144 47.134 47.133v32.134c0 25.989-21.145 47.133-47.134 47.133h-10.87a206.755 206.755 0 01-13.323 32.097l7.704 7.704c18.666 18.646 18.151 48.528-.006 66.665l-22.713 22.712c-18.159 18.184-48.041 18.638-66.664-.006l-7.697-7.697a206.893 206.893 0 01-32.097 13.323v10.871c0 25.987-21.144 47.131-47.134 47.131zM165.717 409.17a176.812 176.812 0 0045.831 19.025 14.999 14.999 0 0111.252 14.524v22.148c0 9.447 7.687 17.133 17.134 17.133h32.133c9.447 0 17.134-7.686 17.134-17.133v-22.148a14.999 14.999 0 0111.252-14.524 176.812 176.812 0 0045.831-19.025 15 15 0 0118.243 2.305l15.688 15.689c6.764 6.772 17.626 6.615 24.224.007l22.727-22.726c6.582-6.574 6.802-17.438.006-24.225l-15.695-15.695a15 15 0 01-2.305-18.242 176.78 176.78 0 0019.024-45.831 15 15 0 0114.524-11.251h22.147c9.447 0 17.134-7.686 17.134-17.133v-32.134c0-9.447-7.687-17.133-17.134-17.133H442.72a15 15 0 01-14.524-11.251 176.815 176.815 0 00-19.024-45.831 15 15 0 012.305-18.242l15.689-15.689c6.782-6.774 6.605-17.634.006-24.225l-22.725-22.725c-6.587-6.596-17.451-6.789-24.225-.006l-15.694 15.695a15 15 0 01-18.243 2.305 176.812 176.812 0 00-45.831-19.025 14.999 14.999 0 01-11.252-14.524v-22.15c0-9.447-7.687-17.133-17.134-17.133h-32.133c-9.447 0-17.134 7.686-17.134 17.133v22.148a14.999 14.999 0 01-11.252 14.524 176.812 176.812 0 00-45.831 19.025 15.002 15.002 0 01-18.243-2.305l-15.688-15.689c-6.764-6.772-17.627-6.615-24.224-.007l-22.727 22.726c-6.582 6.574-6.802 17.437-.006 24.225l15.695 15.695a15 15 0 012.305 18.242 176.78 176.78 0 00-19.024 45.831 15 15 0 01-14.524 11.251H47.134C37.687 222.8 30 230.486 30 239.933v32.134c0 9.447 7.687 17.133 17.134 17.133h22.147a15 15 0 0114.524 11.251 176.815 176.815 0 0019.024 45.831 15 15 0 01-2.305 18.242l-15.689 15.689c-6.782 6.774-6.605 17.634-.006 24.225l22.725 22.725c6.587 6.596 17.451 6.789 24.225.006l15.694-15.695c3.568-3.567 10.991-6.594 18.244-2.304z"/><path d="M256 367.4c-61.427 0-111.4-49.974-111.4-111.4S194.573 144.6 256 144.6 367.4 194.574 367.4 256 317.427 367.4 256 367.4zm0-192.8c-44.885 0-81.4 36.516-81.4 81.4s36.516 81.4 81.4 81.4 81.4-36.516 81.4-81.4-36.515-81.4-81.4-81.4z"/></symbol><symbol viewBox="0 0 469.333 469.333" id="time" xmlns="http://www.w3.org/2000/svg"><path d="M403.233 229.374c1.272-9.288 2.1-18.199 2.1-26.707C405.333 90.917 314.417 0 202.667 0S0 90.917 0 202.667s90.917 202.667 202.667 202.667c8.557 0 17.462-.823 26.707-2.102 21.854 39.372 63.824 66.102 111.96 66.102 70.583 0 128-57.417 128-128-.001-48.135-26.73-90.106-66.101-111.96zM220.408 382.93c-6.089.65-12.017 1.07-17.741 1.07-99.979 0-181.333-81.344-181.333-181.333S102.687 21.333 202.667 21.333 384 102.677 384 202.667c0 5.695-.427 11.629-1.081 17.738-13.06-4.505-27.014-7.072-41.586-7.072-70.583 0-128 57.417-128 128 0 14.576 2.567 28.534 7.075 41.597zM341.333 448c-58.813 0-106.667-47.854-106.667-106.667s47.854-106.667 106.667-106.667S448 282.521 448 341.333 400.146 448 341.333 448z"/><path d="M336 298.667h37.333A10.66 10.66 0 00384 288a10.66 10.66 0 00-10.667-10.667H352v-10.667c0-5.896-4.771-10.667-10.667-10.667s-10.667 4.771-10.667 10.667v11.206c-18.046 2.615-32 18.036-32 36.794C298.667 335.25 315.417 352 336 352h10.667c8.813 0 16 7.177 16 16s-7.188 16-16 16h-37.333a10.66 10.66 0 00-10.667 10.667 10.66 10.66 0 0010.667 10.667h21.333V416c0 5.896 4.771 10.667 10.667 10.667S352 421.896 352 416v-11.206c18.046-2.615 32-18.036 32-36.794 0-20.583-16.75-37.333-37.333-37.333H336c-8.813 0-16-7.177-16-16s7.188-16 16-16zM202.667 64A10.66 10.66 0 00192 74.667V198.25l-60.875 60.875c-4.167 4.167-4.167 10.917 0 15.083 2.083 2.083 4.813 3.125 7.542 3.125s5.458-1.042 7.542-3.125l64-64c2-2 3.125-4.708 3.125-7.542v-128A10.662 10.662 0 00202.667 64z"/></symbol><symbol viewBox="0 0 455.731 455.731" id="vk" xmlns="http://www.w3.org/2000/svg"><path fill="#44678d" d="M0 0h455.731v455.731H0z"/><path d="M118.06 138.69c10.922 26.972 24.764 52.402 42.995 75.231 2.418 3.038 5.466 5.739 8.677 7.938 4.69 3.221 9.115 2.089 11.022-3.276 2.017-5.63 3.868-17.04 3.978-22.952.301-15.448-.045-25.572-.875-41.001-.538-9.882-4.051-18.559-18.587-21.178-4.489-.812-4.906-4.507-2.022-8.193 6.004-7.674 14.368-8.897 23.438-9.381 14.7-.794 29.454-.146 44.172 0 5.995.055 12.026.538 17.93 1.825 7.701 1.679 11.825 7.081 13.094 14.599.657 3.878.995 7.865.903 11.789-.383 16.862-1.195 33.715-1.387 50.568-.082 6.615.401 13.395 1.816 19.837 1.98 8.978 8.093 11.232 14.344 4.745 7.938-8.239 14.937-17.51 21.506-26.926 11.935-17.127 20.849-35.923 28.523-55.303 3.969-10 7.008-12.172 17.765-12.199 20.22-.046 40.44-.064 60.66 0 3.586.018 7.336.356 10.721 1.433 5.493 1.752 7.674 6.232 6.387 11.917-3.002 13.322-10.201 24.645-17.911 35.531-12.373 17.464-25.339 34.509-38.003 51.772-1.615 2.199-3.038 4.544-4.362 6.925-4.736 8.559-4.407 13.358 2.5 20.484 10.995 11.342 22.766 21.953 33.414 33.605 7.738 8.477 14.9 17.674 21.032 27.355 7.756 12.245 2.965 23.778-11.524 25.831-9.115 1.287-53.641.01-55.942 0-11.971-.054-22.464-4.206-30.914-12.336-9.398-9.051-17.939-18.979-26.963-28.423-2.719-2.847-5.621-5.575-8.75-7.957-7.382-5.63-14.627-4.38-18.076 4.289-2.947 7.446-5.493 26.999-5.612 28.669-.62 8.732-6.177 14.298-15.959 14.836-28.24 1.533-55.605-1.615-81.098-15.274-21.607-11.57-38.861-27.93-53.807-47.009-23.742-30.304-42.495-63.615-59.616-97.904-.875-1.753-18.216-38.653-18.682-40.396-1.549-5.836-.104-11.411 4.827-13.33 3.074-1.196 60.248-.004 61.199.047 9.123.494 15.344 4.343 19.187 13.812z" fill="#fff"/></symbol></svg>