<svg height="480pt" viewBox="0 0 480 480.00334" width="480pt" xmlns="http://www.w3.org/2000/svg"><path d="m232 17.492188 171.707031 109.261718 8.589844-13.503906-176-112c-2.621094-1.667969-5.96875-1.667969-8.589844 0l-176 112 8.589844 13.503906zm0 0"/><path d="m112 352.003906h64c4.421875 0 8-3.582031 8-8v-64c0-4.417968-3.578125-8-8-8h-64c-4.417969 0-8 3.582032-8 8v64c0 4.417969 3.582031 8 8 8zm8-32h16v16h-16zm32 16v-16h16v16zm16-32h-16v-16h16zm-32-16v16h-16v-16zm0 0"/><path d="m112 240.003906h64c4.421875 0 8-3.582031 8-8v-64c0-4.417968-3.578125-8-8-8h-64c-4.417969 0-8 3.582032-8 8v64c0 4.417969 3.582031 8 8 8zm8-32h16v16h-16zm32 16v-16h16v16zm16-32h-16v-16h16zm-32-16v16h-16v-16zm0 0"/><path d="m288 352.003906h64c4.421875 0 8-3.582031 8-8v-64c0-4.417968-3.578125-8-8-8h-64c-4.417969 0-8 3.582032-8 8v64c0 4.417969 3.582031 8 8 8zm8-32h16v16h-16zm32 16v-16h16v16zm16-32h-16v-16h16zm-32-16v16h-16v-16zm0 0"/><path d="m288 240.003906h64c4.421875 0 8-3.582031 8-8v-64c0-4.417968-3.578125-8-8-8h-64c-4.417969 0-8 3.582032-8 8v64c0 4.417969 3.582031 8 8 8zm8-32h16v16h-16zm32 16v-16h16v16zm16-32h-16v-16h16zm-32-16v16h-16v-16zm0 0"/><path d="m472 312.003906h-48c-4.417969 0-8 3.582032-8 8v40h-8v16h32v88h-48v-304.695312l11.707031 7.445312 8.589844-13.503906-176-112c-2.621094-1.667969-5.96875-1.667969-8.589844 0l-176 112 8.589844 13.503906 11.703125-7.445312v197.382812l-2.34375-2.34375c-3.121094-3.125-8.1875-3.125-11.3125 0l-10.34375 10.34375-10.34375-10.34375c-3.121094-3.125-8.1875-3.125-11.3125 0l-16 16c-1.5 1.5-2.339844 3.535156-2.34375 5.65625v88h-8v16h464v-16h-8v-88h16c4.421875 0 8-3.582031 8-8v-48c0-4.417968-3.578125-8-8-8zm-240-254.511718 144 91.632812v282.878906h-80v-16c0-4.417968-3.578125-8-8-8h-8v-16c0-4.417968-3.578125-8-8-8v-104c0-4.417968-3.578125-8-8-8h-64c-4.417969 0-8 3.582032-8 8v104c-4.417969 0-8 3.582032-8 8v16h-8c-4.417969 0-8 3.582032-8 8v16h-80v-282.878906zm24 326.511718h-48v-96h48zm-56 16h64v8h-64zm80 24v8h-96v-8zm-216-52.6875 8 8v84.6875h-16v-84.6875zm-40 8 8-8 8 8v84.6875h-16zm64 84.6875v-16h288v16zm376-104h-32v-32h32zm0 0"/></svg>