<svg height="512pt" viewBox="-17 0 511 512" width="512pt" xmlns="http://www.w3.org/2000/svg"><path d="m201.835938 371.234375c-8.285157 0-15 6.714844-15 15s6.714843 15 15 15h106.316406v15.003906c0 8.28125 6.714844 15 15 15 8.28125 0 15-6.71875 15-15v-242.722656c0-8.28125-6.71875-15-15-15-8.285156 0-15 6.71875-15 15v15.003906h-106.316406c-8.285157 0-15 6.714844-15 15 0 8.285157 6.714843 15 15 15h106.316406v30.90625h-45.65625c-8.285156 0-15 6.714844-15 15 0 8.28125 6.714844 15 15 15h45.65625v30.902344h-45.65625c-8.285156 0-15 6.71875-15 15 0 8.285156 6.714844 15 15 15h45.65625v30.90625zm0 0"/><path d="m423.597656 0c-24.613281 0-45.449218 16.472656-52.15625 39h-355.941406c-5.988281 0-11.398438 3.558594-13.769531 9.054688-2.375 5.5-1.25 11.878906 2.855469 16.234374l77.265624 81.953126v289.855468c0 41.851563 33.9375 75.902344 75.65625 75.902344h166c41.71875 0 75.65625-34.050781 75.65625-75.902344v-381.507812c0-13.558594 10.960938-24.589844 24.433594-24.589844s24.429688 11.03125 24.429688 24.589844v200.132812c0 8.285156 6.71875 15 15 15 8.285156 0 15-6.714844 15-15v-200.132812c0-30.101563-24.417969-54.589844-54.429688-54.589844zm-54.429687 436.097656c0 25.3125-20.480469 45.902344-45.660157 45.902344h-166c-25.175781 0-45.65625-20.589844-45.65625-45.902344v-295.808594c0-3.824218-1.460937-7.507812-4.085937-10.292968l-57.507813-60.996094h318.910157zm0 0"/></svg>